<?xml version="1.0"?>

<svg version="1.0" xmlns="http://www.w3.org/2000/svg" width="1536.000000pt" height="1024.000000pt" viewBox="0 0 1536.000000 1024.000000" preserveAspectRatio="xMidYMid meet">
<metadata>
Created by potrace 1.16, written by Peter Selinger 2001-2019
</metadata>
<g transform="translate(0.000000,1024.000000) scale(0.100000,-0.100000)" fill="#000000" stroke="none">
<path d="M8943 6604 c-11 -29 11 -47 98 -83 292 -123 485 -299 610 -556 170&#xA;-352 128 -761 -118 -1133 -149 -225 -416 -432 -697 -538 -60 -23 -80 -49 -53&#xA;-69 39 -29 294 63 474 170 369 221 615 566 674 949 17 107 6 323 -20 426 -97&#xA;373 -411 686 -824 824 -90 30 -135 33 -144 10z"></path>
<path d="M8408 6380 c-77 -14 -155 -39 -168 -54 -6 -8 -10 -23 -8 -33 3 -17&#xA;19 -18 193 -18 161 -1 203 -4 277 -23 284 -71 515 -282 584 -533 24 -87 24&#xA;-308 1 -397 -75 -281 -260 -499 -542 -638 -165 -81 -275 -107 -455 -107 -125&#xA;0 -158 3 -242 26 -117 31 -250 98 -338 169 -73 59 -121 69 -159 34 -45 -41&#xA;-20 -89 97 -184 109 -90 245 -155 402 -195 111 -28 393 -30 508 -4 459 105&#xA;823 435 933 847 31 116 34 347 5 460 -61 243 -239 446 -499 571 -130 62 -218&#xA;81 -392 85 -82 1 -171 -1 -197 -6z"></path>
<path d="M8371 6060 c-185 -29 -381 -137 -339 -187 16 -19 36 -16 151 22 94&#xA;31 115 35 214 35 175 0 307 -52 408 -162 112 -121 146 -250 114 -435 -15 -84&#xA;-7 -113 29 -113 72 0 141 155 142 315 0 229 -163 429 -414 507 -70 21 -226 31&#xA;-305 18z"></path>
<path d="M7495 5868 c-6 -30 -35 -201 -35 -210 0 -5 -62 -8 -137 -8 -195 0&#xA;-293 -13 -355 -47 -102 -56 -142 -133 -174 -338 -17 -108 -17 -111 4 -157 43&#xA;-97 137 -124 407 -115 88 3 178 11 199 17 84 25 158 98 185 183 17 49 121 679&#xA;115 689 -3 4 -50 8 -104 8 -95 0 -100 -1 -105 -22z m-69 -385 c-2 -10 -12 -64&#xA;-21 -120 -31 -202 -44 -216 -204 -221 -126 -4 -176 10 -187 53 -7 27 10 156&#xA;27 211 12 38 47 72 85 84 16 4 91 9 167 9 127 1 138 0 133 -16z"></path>
<path d="M8267 5676 c-32 -13 -65 -30 -75 -37 -48 -36 -76 -69 -100 -114 -21&#xA;-41 -26 -64 -26 -125 0 -84 13 -118 66 -171 125 -124 388 -92 488 59 134 203&#xA;17 413 -229 412 -46 0 -83 -8 -124 -24z"></path>
<path d="M2940 5639 c-120 -21 -197 -81 -234 -182 -13 -34 -86 -416 -86 -448&#xA;0 -5 52 -9 115 -9 l115 0 0 24 c0 44 61 380 73 405 24 49 60 65 156 69 109 5&#xA;150 -2 181 -30 28 -26 26 -55 -20 -291 -16 -87 -30 -163 -30 -168 0 -5 51 -9&#xA;114 -9 l114 0 37 233 c32 199 36 238 26 274 -14 51 -73 106 -134 123 -54 15&#xA;-356 22 -427 9z"></path>
<path d="M3862 5638 c-114 -16 -192 -70 -232 -160 -22 -51 -60 -240 -60 -303&#xA;0 -54 36 -114 85 -142 55 -31 140 -43 296 -43 273 0 382 40 441 160 34 67 74&#xA;278 64 331 -16 86 -83 140 -196 158 -77 13 -309 12 -398 -1z m342 -167 c17&#xA;-16 26 -35 26 -55 0 -56 -29 -195 -45 -220 -29 -44 -88 -59 -223 -55 -170 6&#xA;-182 19 -153 179 29 164 53 181 248 177 113 -2 123 -4 147 -26z"></path>
<path d="M4782 5639 c-96 -16 -166 -67 -198 -146 -11 -26 -39 -173 -89 -465&#xA;l-4 -28 113 0 114 0 11 83 c7 45 23 145 36 221 31 183 37 190 169 194 85 4 96&#xA;2 115 -17 28 -28 27 -48 -14 -270 -19 -104 -35 -194 -35 -200 0 -7 38 -11 110&#xA;-11 l109 0 6 33 c3 17 19 114 34 213 30 188 42 222 87 242 37 17 159 15 194&#xA;-3 43 -22 42 -37 -4 -302 l-32 -183 111 0 110 0 39 230 c22 133 36 247 33 269&#xA;-7 56 -32 87 -95 118 -55 27 -62 28 -222 28 -159 0 -167 -1 -219 -27 -54 -26&#xA;-54 -26 -80 -7 -14 10 -50 23 -80 29 -64 12 -244 11 -319 -1z"></path>
<path d="M5986 5642 c-2 -4 -7 -25 -11 -47 -3 -22 -9 -52 -11 -67 l-6 -28 254&#xA;0 c296 0 293 1 289 -82 l-1 -28 -220 0 c-195 0 -225 -2 -273 -20 -96 -36 -147&#xA;-112 -147 -219 0 -53 4 -65 31 -95 17 -20 47 -40 67 -46 22 -6 173 -10 364&#xA;-10 l326 0 6 28 c24 114 67 435 63 471 -9 83 -63 126 -178 141 -88 11 -546 13&#xA;-553 2z m488 -404 c-4 -18 -9 -49 -13 -68 l-7 -35 -176 0 c-126 0 -181 4 -189&#xA;12 -22 22 -15 74 15 100 26 22 33 23 201 23 l175 0 -6 -32z"></path>
<path d="M11430 5638 c-127 -17 -200 -71 -240 -176 -25 -66 -55 -268 -46 -315&#xA;9 -46 47 -92 100 -120 37 -19 60 -22 241 -25 209 -4 276 3 347 39 54 28 105&#xA;85 127 143 26 71 56 262 47 308 -14 76 -85 129 -197 148 -76 12 -288 11 -379&#xA;-2z m270 -138 c72 -14 90 -32 90 -89 0 -58 -24 -170 -44 -209 -25 -49 -81 -64&#xA;-224 -60 -145 4 -162 13 -162 89 0 61 26 187 45 216 37 56 162 78 295 53z"></path>
<path d="M12370 5640 c-84 -10 -136 -32 -182 -77 -49 -48 -75 -111 -99 -246&#xA;-33 -180 -17 -241 78 -288 47 -24 53 -24 348 -24 l300 0 11 68 11 67 -243 0&#xA;c-134 0 -254 4 -268 10 -32 12 -51 50 -42 84 l6 26 299 0 298 0 18 105 c26&#xA;148 8 202 -77 246 -70 36 -285 49 -458 29z m317 -152 c23 -21 29 -51 17 -82&#xA;-5 -14 -32 -16 -199 -16 l-194 0 9 31 c11 37 36 68 65 80 11 4 78 8 149 8 120&#xA;1 131 -1 153 -21z"></path>
<path d="M10276 5613 c-5 -27 -38 -214 -111 -631 -19 -111 -35 -212 -35 -225&#xA;0 -22 2 -22 108 -19 l108 3 17 121 c10 67 20 125 23 130 3 4 84 8 180 8 205 0&#xA;289 15 362 63 85 57 134 178 149 363 5 62 3 77 -18 113 -51 92 -91 101 -471&#xA;101 l-306 0 -6 -27z m564 -138 c21 -18 22 -26 17 -95 -12 -148 -47 -213 -124&#xA;-231 -51 -12 -310 -12 -318 0 -3 6 1 43 9 83 8 40 20 102 26 138 5 36 13 80&#xA;16 98 l5 33 174 -3 c156 -3 175 -5 195 -23z"></path>
<path d="M7860 5040 c-12 -12 -20 -33 -20 -52 0 -65 141 -166 285 -203 82 -22&#xA;241 -21 335 0 98 23 214 76 235 108 21 33 12 65 -21 73 -27 7 -34 6 -149 -26&#xA;-101 -27 -242 -30 -335 -6 -68 18 -155 62 -203 102 -37 31 -98 33 -127 4z"></path>
</g>
</svg>